<svg xmlns="http://www.w3.org/2000/svg" xmlns:xlink="http://www.w3.org/1999/xlink" width="267.654" height="271.082" viewBox="0 0 267.654 271.082">
  <defs>
    <clipPath id="clip-path">
      <rect id="사각형_453" data-name="사각형 453" width="66.254" height="49.253" rx="14" fill="#ea5817"/>
    </clipPath>
    <clipPath id="clip-path-2">
      <rect id="사각형_455" data-name="사각형 455" width="66.269" height="65.621" fill="#fed67e"/>
    </clipPath>
  </defs>
  <g id="그룹_3153" data-name="그룹 3153" transform="translate(-1139.899 71.352)">
    <g id="그룹_3425" data-name="그룹 3425" transform="translate(1139.899 -71.352)">
      <path id="패스_1606" data-name="패스 1606" d="M132.508,0A132.508,132.508,0,1,1,0,132.508,132.508,132.508,0,0,1,132.508,0Z" transform="translate(2.638)" fill="#fff7ed"/>
      <path id="패스_2012" data-name="패스 2012" d="M215.966,170.01c0-3.8,9.439-4.61,13.17-4.61,7.566,0,8.067-4.331,14.349-4.331,5.523,0,8.333,4.471,13.475,4.471,11.036,0,13.493-12.71,24.229-12.71,10.923,0,10.365,13.269,20.529,13.269,5.168,0,36.217.976,36.217,3.913Z" transform="translate(-215.966 -96.057)" fill="#ffedd5"/>
      <path id="패스_2013" data-name="패스 2013" d="M41.244,55.255c0-2.4,8.182-6.162,12.656-6.162,8.826,0,6.071,3.081,11.623,3.081,6.327,0,7.772-13.72,17.4-13.72,10.522,0,8.87,13.42,15.327,13.42,2.781,0,4.174-1.3,8.127-1.3a5.149,5.149,0,0,1,4.8,4.7Z" transform="translate(122.117 101.635)" fill="#ffedd5"/>
    </g>
    <path id="패스_1603" data-name="패스 1603" d="M8.5,0H76a8.5,8.5,0,0,1,8.5,8.5v167.51a8.5,8.5,0,0,1-8.5,8.5H8.5a8.5,8.5,0,0,1-8.5-8.5V8.5A8.5,8.5,0,0,1,8.5,0Z" transform="translate(1193.271 14.673)" fill="#383837"/>
    <path id="패스_1605" data-name="패스 1605" d="M6,0H72.755a6,6,0,0,1,6,6v166.76a6,6,0,0,1-6,6H6a6,6,0,0,1-6-6V6A6,6,0,0,1,6,0Z" transform="translate(1196.021 17.673)" fill="#fff"/>
    <path id="패스_1605_-_윤곽선" data-name="패스 1605 - 윤곽선" d="M6,.546A5.449,5.449,0,0,0,.546,6v166.76A5.449,5.449,0,0,0,6,178.215H72.755a5.449,5.449,0,0,0,5.454-5.454V6A5.449,5.449,0,0,0,72.755.546H6M6,0H72.755a6,6,0,0,1,6,6v166.76a6,6,0,0,1-6,6H6a6,6,0,0,1-6-6V6A6,6,0,0,1,6,0Z" transform="translate(1196.021 17.673)" fill="#383837"/>
    <g id="그룹_3008" data-name="그룹 3008" transform="translate(1203.521 26.89)">
      <path id="패스_1420" data-name="패스 1420" d="M154.433,155.772l3.956-3.494h-4.035Z" transform="translate(-150.477 -139.222)" fill="#ea6632"/>
      <path id="패스_1421" data-name="패스 1421" d="M150.46,120.8h19.685a5.454,5.454,0,0,1,5.454,5.454v2.543a5.454,5.454,0,0,1-5.454,5.454H150.46a5.454,5.454,0,0,1-5.454-5.454v-2.543a5.454,5.454,0,0,1,5.454-5.454" transform="translate(-145.006 -120.798)" fill="#ea6632"/>
      <path id="패스_1422" data-name="패스 1422" d="M170.358,134.153a1.187,1.187,0,1,1-1.187,1.187,1.187,1.187,0,0,1,1.187-1.187" transform="translate(-159.149 -128.614)" fill="#fff"/>
      <path id="패스_1423" data-name="패스 1423" d="M180.215,134.153a1.187,1.187,0,1,1-1.187,1.187,1.187,1.187,0,0,1,1.187-1.187" transform="translate(-164.918 -128.614)" fill="#fff"/>
      <path id="패스_1424" data-name="패스 1424" d="M190.072,134.153a1.187,1.187,0,1,1-1.187,1.187,1.187,1.187,0,0,1,1.187-1.187" transform="translate(-170.688 -128.614)" fill="#fff"/>
    </g>
    <g id="그룹_3010" data-name="그룹 3010" transform="translate(1236.682 90.153)">
      <path id="패스_1425" data-name="패스 1425" d="M349.282,60.381l-3.956-3.494h4.035Z" transform="translate(-322.644 -43.832)" fill="#78d6dd"/>
      <path id="패스_1426" data-name="패스 1426" d="M315.774,38.859H296.089a5.454,5.454,0,0,1-5.454-5.454V30.862a5.454,5.454,0,0,1,5.454-5.454h19.685a5.454,5.454,0,0,1,5.454,5.454V33.4a5.454,5.454,0,0,1-5.454,5.454" transform="translate(-290.635 -25.408)" fill="#78d6dd"/>
      <path id="패스_1427" data-name="패스 1427" d="M335.7,38.763a1.187,1.187,0,1,1-1.187,1.187,1.187,1.187,0,0,1,1.187-1.187" transform="translate(-316.317 -33.224)" fill="#fff"/>
      <path id="패스_1428" data-name="패스 1428" d="M325.844,38.763a1.187,1.187,0,1,1-1.187,1.187,1.187,1.187,0,0,1,1.187-1.187" transform="translate(-310.548 -33.224)" fill="#fff"/>
      <path id="패스_1429" data-name="패스 1429" d="M315.987,38.763A1.187,1.187,0,1,1,314.8,39.95a1.187,1.187,0,0,1,1.187-1.187" transform="translate(-304.778 -33.224)" fill="#fff"/>
    </g>
    <g id="그룹_3045" data-name="그룹 3045" transform="translate(1201.021 53.917)">
      <path id="선_314" data-name="선 314" d="M68.728-.454H0V-1H68.728Z" transform="translate(0 1)" fill="#e8eaee"/>
      <path id="선_315" data-name="선 315" d="M68.754-.454H0V-1H68.754Z" transform="translate(0 5.008)" fill="#e8eaee"/>
      <path id="선_316" data-name="선 316" d="M68.754-.454H0V-1H68.754Z" transform="translate(0 9.016)" fill="#e8eaee"/>
      <path id="선_317" data-name="선 317" d="M68.754-.454H0V-1H68.754Z" transform="translate(0 13.023)" fill="#e8eaee"/>
    </g>
    <g id="그룹_3046" data-name="그룹 3046" transform="translate(1221.352 125.171)">
      <path id="선_314-2" data-name="선 314" d="M48.4-.454H0V-1H48.4Z" transform="translate(0 1)" fill="#e8eaee"/>
      <path id="선_315-2" data-name="선 315" d="M48.424-.454H0V-1H48.424Z" transform="translate(0 5.008)" fill="#e8eaee"/>
      <path id="선_316-2" data-name="선 316" d="M48.424-.454H0V-1H48.424Z" transform="translate(0 9.016)" fill="#e8eaee"/>
      <path id="선_317-2" data-name="선 317" d="M48.424-.454H0V-1H48.424Z" transform="translate(0 13.023)" fill="#e8eaee"/>
    </g>
    <g id="그룹_3047" data-name="그룹 3047" transform="translate(1203.521 153.937)">
      <path id="선_314-3" data-name="선 314" d="M35.634-.454H0V-1H35.634Z" transform="translate(0 1)" fill="#e8eaee"/>
      <path id="선_315-3" data-name="선 315" d="M35.661-.454H0V-1H35.661Z" transform="translate(0 5.008)" fill="#e8eaee"/>
      <path id="선_316-3" data-name="선 316" d="M35.661-.454H0V-1H35.661Z" transform="translate(0 9.016)" fill="#e8eaee"/>
      <path id="선_317-3" data-name="선 317" d="M17.876-.454H0V-1H17.876Z" transform="translate(0 13.023)" fill="#e8eaee"/>
    </g>
    <g id="그룹_86" data-name="그룹 86" transform="translate(1158.84 38.165)">
      <rect id="사각형_451" data-name="사각형 451" width="66.254" height="49.253" rx="14" transform="translate(0 11.01)" fill="#383837"/>
      <g id="그룹_82" data-name="그룹 82" transform="translate(0 0)">
        <g id="마스크_그룹_1" data-name="마스크 그룹 1" transform="translate(0 11.01)" clip-path="url(#clip-path)">
          <g id="Layer_2" data-name="Layer 2" transform="translate(5.174 -13.126) rotate(7)">
            <path id="패스_110" data-name="패스 110" d="M11.868,20.54c5.706-4.024,25.227-4.024,45.452-3.217,2.392.1,9.178-14.267,12.072-16.31,3.186-2.249,8.263-.218,8.263.978,0,2.61-3.619,2.672-4.385,3.516S65.658,26.445,59.877,29.4c-1.869.959-15.691.642-16.656,1.89s-1.85,21.966-2.657,22.735-19.914,1.408-22.113.934c-.121-1.61-2.694-14.965-3.339-16.011-.355-.031-5.5,8.59-5.494,9.677,0,1.433,8.8,13.436,12.486,15.491.956.529.816,2.037.642,2.4s-1.492,2.18-2.314,2.18S.435,57.19,0,48.514C-.113,46.168,4.515,25.741,11.868,20.54Z" transform="translate(0 6.557)" fill="#e99c85"/>
            <path id="패스_112" data-name="패스 112" d="M7.444,8.2C7.549,9.427.81,10.094.7,8.777L0,.573,6.746,0Z" transform="translate(21.439 17.613)" fill="#f8cdba"/>
            <path id="패스_113" data-name="패스 113" d="M.4,4.967C.339,4.238,1.794,1.582,3.114,1.9,1.482,1.469.533-.374,0,.068Z" transform="translate(21.454 18.118)"/>
            <g id="그룹_80" data-name="그룹 80" transform="translate(17.365 0)">
              <ellipse id="타원_16" data-name="타원 16" cx="8.795" cy="8.795" rx="8.795" ry="8.795" transform="translate(1.134 2.854)" fill="#f8cdba"/>
              <path id="패스_114" data-name="패스 114" d="M.571,2.97A.148.148,0,0,1,.5,2.694a.891.891,0,0,0,.51-.62C1.115,1.455.427.684.134.355.095.312.061.274.035.243A.147.147,0,0,1,.26.052C.284.08.316.117.354.159.7.55,1.429,1.365,1.3,2.123a1.18,1.18,0,0,1-.658.828A.147.147,0,0,1,.571,2.97Z" transform="translate(15.042 10.648)" fill="#1f161e"/>
              <path id="패스_115" data-name="패스 115" d="M1.675,1.208a1.788,1.788,0,0,1-.841-.3,3.455,3.455,0,0,1-.8-.667A.147.147,0,1,1,.259.051,2.433,2.433,0,0,0,1.7.913a.147.147,0,0,1,.015.295Z" transform="translate(11.124 14.576)" fill="#1f161e"/>
              <path id="패스_116" data-name="패스 116" d="M1.118,7.255C.86,4.212,4.909,1.586,7.861,1.337c4.7-.4,7.328-.3,9.9-1.146,3.688-1.215,3.619,3.737,3.669,4.3.2,2.37-.539,3.915-3.114,4.513a8.1,8.1,0,0,0-1.112-2.3,3.3,3.3,0,0,0-2.267.153c-.645.29-5.983,3.382-10.1,3.737-.483.813-1.286,5.631-.76,7.59-1.2.171-3.756-3.56-4.049-5.606A4.519,4.519,0,0,1,1.4,8.753C1.324,8.323,1.14,7.494,1.118,7.255Z" transform="translate(0 0)"/>
              <ellipse id="타원_19" data-name="타원 19" cx="1.937" cy="1.937" rx="1.937" ry="1.937" transform="translate(2.685 10.584)" fill="#f8cdba"/>
            </g>
            <path id="패스_117" data-name="패스 117" d="M22.087,28.176C18.4,26.121,9.6,14.118,9.6,12.685c0-.7,2.108-4.488,3.719-7.113L3.017,0C1.03,5.917-.057,11.424,0,12.573c.43,8.677,19.59,20.172,20.412,20.172s2.14-1.8,2.314-2.18S23.046,28.706,22.087,28.176Z" transform="translate(0.003 42.498)" fill="#f8cdba"/>
            <path id="패스_118" data-name="패스 118" d="M17.737,1.012c-2.893,2.043-9.68,16.4-12.084,16.31-4.071-.162-1.725-.081-5.631-.15L0,30.12c4.532,0,6.917-.059,8.207-.716C13.99,26.445,20.839,6.356,21.6,5.506S25.984,4.6,25.984,1.99C26,.794,20.913-1.237,17.737,1.012Z" transform="translate(51.655 6.57)" fill="#f8cdba"/>
          </g>
        </g>
        <g id="그룹_81" data-name="그룹 81" transform="translate(22.41 0) rotate(7)">
          <ellipse id="타원_16-2" data-name="타원 16" cx="8.795" cy="8.795" rx="8.795" ry="8.795" transform="translate(1.134 2.854)" fill="#f8cdba"/>
          <path id="패스_114-2" data-name="패스 114" d="M.588,3A.164.164,0,0,1,.508,2.7a.876.876,0,0,0,.5-.608C1.113,1.476.43.71.138.383.1.339.065.3.039.27A.164.164,0,1,1,.289.058C.313.086.345.122.383.165c.351.393,1.08,1.211.95,1.978a1.2,1.2,0,0,1-.666.84A.163.163,0,0,1,.588,3Z" transform="translate(15.025 10.632)" fill="#1f161e"/>
          <path id="패스_115-2" data-name="패스 115" d="M1.692,1.241A2.739,2.739,0,0,1,.04.271.164.164,0,1,1,.288.057,2.416,2.416,0,0,0,1.713.913a.164.164,0,0,1,.016.327Z" transform="translate(11.107 14.559)" fill="#1f161e"/>
          <path id="패스_116-2" data-name="패스 116" d="M1.118,7.255C.86,4.212,4.909,1.586,7.861,1.337c4.7-.4,7.328-.3,9.9-1.146,3.688-1.215,3.619,3.737,3.669,4.3.2,2.37-.539,3.915-3.114,4.513a8.1,8.1,0,0,0-1.112-2.3,3.3,3.3,0,0,0-2.267.153c-.645.29-5.983,3.382-10.1,3.737-.483.813-1.286,5.631-.76,7.59-1.2.171-3.756-3.56-4.049-5.606A4.519,4.519,0,0,1,1.4,8.753C1.324,8.323,1.14,7.494,1.118,7.255Z" transform="translate(0 0)"/>
          <ellipse id="타원_19-2" data-name="타원 19" cx="1.937" cy="1.937" rx="1.937" ry="1.937" transform="translate(2.685 10.584)" fill="#f8cdba"/>
        </g>
        <path id="패스_143" data-name="패스 143" d="M17.737,1.012c-2.893,2.043-9.68,16.4-12.084,16.31-4.071-.162-1.725-.081-5.631-.15L0,30.12c4.532,0,6.917-.059,8.207-.716C13.99,26.445,20.839,6.356,21.6,5.506S25.984,4.6,25.984,1.99C26,.794,20.913-1.237,17.737,1.012Z" transform="translate(55.644 10.7) rotate(7)" fill="#f8cdba"/>
      </g>
    </g>
    <g id="그룹_85" data-name="그룹 85" transform="translate(1236.156 107.21)">
      <path id="패스_1604" data-name="패스 1604" d="M3.5,0H62.754a3.5,3.5,0,0,1,3.5,3.5V45.753a3.5,3.5,0,0,1-3.5,3.5H3.5a3.5,3.5,0,0,1-3.5-3.5V3.5A3.5,3.5,0,0,1,3.5,0Z" transform="translate(9.801 24.47)" fill="#383837"/>
      <g id="Layer_2-2" data-name="Layer 2" transform="matrix(0.996, 0.087, -0.087, 0.996, 6.409, 0)">
        <g id="그룹_84" data-name="그룹 84" transform="matrix(0.996, -0.087, 0.087, 0.996, 0, 8.162)">
          <g id="그룹_84-2" data-name="그룹 84" clip-path="url(#clip-path-2)">
            <path id="패스_144" data-name="패스 144" d="M66.266,59.313c.167-1.909-6.2-27.557-13.167-32.383-2.9-2.016-35.809-4.116-39.366-4.061-.595-1,8.635-19.963,9.127-20.977-.083-.756-3.282-2.169-4.335-1.845S2.258,14.461,0,30.336c1.819,3.413,18.743,6.157,19.3,7.113.5.865-2.148,23.026-.947,28.172H62.735c2.057-3.3,3.484-5.778,3.53-6.308" transform="translate(0 0)" fill="#fed67e"/>
          </g>
        </g>
        <path id="패스_138" data-name="패스 138" d="M3.932,8.277A36.012,36.012,0,0,1,.083,6.8c-.558-.329,1.84-4.367,2.953-5.536S6.447-.505,7.648.539,8.106,4.155,3.932,8.277Z" transform="translate(18.411 0)" fill="#f8cdba"/>
        <path id="패스_140" data-name="패스 140" d="M6.7,21.868a.273.273,0,0,1-.263-.348,37.825,37.825,0,0,0,1.223-7.039,2.2,2.2,0,0,0-.2-.59c-.134-.317-.332-.739-.591-1.255C6.413,11.729,5.76,10.5,4.928,9,3.427,6.283,1.667,3.236.721,1.6.383,1.014.139.592.035.407A.273.273,0,0,1,.511.139c.1.182.346.6.682,1.186.955,1.653,2.732,4.729,4.242,7.463.84,1.521,1.5,2.753,1.95,3.664.743,1.489.832,1.874.817,2.068A38.4,38.4,0,0,1,6.961,21.67.273.273,0,0,1,6.7,21.868Z" transform="translate(51.109 47.273)" fill="#e0b34f"/>
        <path id="패스_141" data-name="패스 141" d="M.306,7.489a.273.273,0,0,1-.273-.262A36.955,36.955,0,0,1,.4.233a.273.273,0,1,1,.54.08A36.408,36.408,0,0,0,.579,7.2a.273.273,0,0,1-.261.284Z" transform="translate(22.228 36.522)" fill="#e0b34f"/>
        <path id="패스_133" data-name="패스 133" d="M0,8.121c0,1.212,6.685,1.282,6.68,0V0H0Z" transform="translate(36.732 23.193)" fill="#f8cdba"/>
        <path id="패스_134" data-name="패스 134" d="M3.468,4.925c0-.723-2.2-3.809-3.468-3.389C1.571.977,2.876-.329,3.454.077Z" transform="translate(39.935 23.097)" fill="#1f161e"/>
        <g id="그룹_83" data-name="그룹 83" transform="translate(28.248 4.339)">
          <ellipse id="타원_20" data-name="타원 20" cx="8.676" cy="8.676" rx="8.676" ry="8.676" transform="translate(0 4.705)" fill="#f8cdba"/>
          <path id="패스_135" data-name="패스 135" d="M.92,3a.164.164,0,0,1-.051-.008A1.178,1.178,0,0,1,.07,2.3,1.7,1.7,0,0,1,.162,1.113,5.834,5.834,0,0,1,.629.2C.657.154.681.114.7.083A.164.164,0,0,1,.983.245C.964.279.939.321.91.369.686.741.164,1.61.377,2.185a.859.859,0,0,0,.594.495A.164.164,0,0,1,.92,3Z" transform="translate(3.187 14.051)" fill="#1f161e"/>
          <path id="패스_136" data-name="패스 136" d="M.164,1.5a.164.164,0,0,1-.021-.326A2.384,2.384,0,0,0,1.369.082a.164.164,0,1,1,.283.165A2.637,2.637,0,0,1,.185,1.5Z" transform="translate(7.043 17.124)" fill="#1f161e"/>
          <ellipse id="타원_23" data-name="타원 23" cx="1.911" cy="1.911" rx="1.911" ry="1.911" transform="translate(13.78 10.393)" fill="#f8cdba"/>
          <path id="패스_142" data-name="패스 142" d="M6.783,2.209c2.209,0,8.765-1.083,10.364-2.209a23.872,23.872,0,0,1,4.725,6.628L18.431,9.315l4.087-1.3A16.018,16.018,0,0,1,23.9,13.709c-1.337,2.566-4.606,3.278-5.2,3.278-3.866,0-4.584-6.095-6.407-7.067-3.1-1.657-7.34,1.1-12.135.293C-.618,7.9,1.489,2.209,6.783,2.209Z" transform="translate(0.432 0)" fill="#1f161e"/>
          <ellipse id="타원_24" data-name="타원 24" cx="1.922" cy="1.922" rx="1.922" ry="1.922" transform="translate(14.168 11.016)" fill="#f8cdba"/>
        </g>
      </g>
    </g>
    <g id="Layer_2-3" data-name="Layer 2" transform="translate(1157.518 119.818)">
      <g id="Layer_2-4" data-name="Layer 2" transform="translate(0 0)">
        <path id="패스_119" data-name="패스 119" d="M3.717,90.143c9.413-3.307,17.435,9.622,19.6,13.058,9.448,15.094,1.474,28.256-2.714,29.766-7.3,2.636-15.224-9.22-17.466-12.975C-.695,113.633.495,104.729.07,102.015S1.206,91.025,3.717,90.143Z" transform="translate(-0.001 -74.018)" fill="#a2b793"/>
        <path id="패스_120" data-name="패스 120" d="M125.865.1C131.8-.751,135.24,4.16,136.3,6.966c1.721,4.579,5.428,7.039,5.428,12.889,0,13.653-8.31,24.592-12.042,24.592-8.225,0-11.278-8.65-11.278-12.3,0-6.19,1.637-13.655,1.442-15.518C119.442,12.807,117.149,1.342,125.865.1Z" transform="translate(-97.811 -0.001)" fill="#e99c85"/>
        <path id="패스_121" data-name="패스 121" d="M63.392,206.383a.546.546,0,0,1-.544-.5,169.152,169.152,0,0,0-7.433-37.024c-1.788-5.644-3.425-9.84-4.484-12.366a34.9,34.9,0,0,0-2.819-5.771.546.546,0,0,1,.868-.664,36.08,36.08,0,0,1,2.959,6.012c1.067,2.547,2.717,6.776,4.517,12.458a170.26,170.26,0,0,1,7.481,37.27.546.546,0,0,1-.5.587Z" transform="translate(-39.848 -126.471)" fill="#383837"/>
        <path id="패스_122" data-name="패스 122" d="M67.246,152.279a.546.546,0,0,1-.43-.882,15.386,15.386,0,0,0,1.675-3.437c.515-1.342.914-2.608.993-2.94a.546.546,0,0,1,1.063.253c-.1.417-.515,1.719-1.036,3.078a15.8,15.8,0,0,1-1.834,3.718A.545.545,0,0,1,67.246,152.279Z" transform="translate(-54.473 -119.642)" fill="#383837"/>
        <path id="패스_123" data-name="패스 123" d="M42.437,239.419h0a31.829,31.829,0,0,1-5.992-.613,12.444,12.444,0,0,1-4.018-1.375.546.546,0,0,1,.6-.91c1.279.849,5.241,1.781,9.412,1.805a.546.546,0,0,1,0,1.092Z" transform="translate(-26.78 -195.497)" fill="#383837"/>
        <path id="패스_124" data-name="패스 124" d="M100.156,274.213a.546.546,0,0,1-.241-1.037,6.212,6.212,0,0,0,2.23-2.207l.008-.012a.546.546,0,0,1,.914.6l-.008.012a9.806,9.806,0,0,1-.9,1.2,5.856,5.856,0,0,1-1.76,1.39A.544.544,0,0,1,100.156,274.213Z" transform="translate(-81.733 -223.813)" fill="#383837"/>
        <path id="패스_125" data-name="패스 125" d="M153.657,158.129h-.017a.546.546,0,0,1-.53-.562c.056-1.885.518-6.1,1.1-11.435.795-7.26,1.883-17.2,2.526-26.628.35-5.128.538-9.677.558-13.519a74.436,74.436,0,0,0-.59-10.907.546.546,0,0,1,1.081-.161,75.493,75.493,0,0,1,.6,11.074c-.021,3.865-.209,8.437-.561,13.587-.645,9.448-1.735,19.4-2.53,26.673-.581,5.312-1.041,9.507-1.1,11.349A.546.546,0,0,1,153.657,158.129Z" transform="translate(-126.672 -78.217)" fill="#383837"/>
        <path id="패스_126" data-name="패스 126" d="M178.016,107.555a.546.546,0,0,1-.187-1.059,11.358,11.358,0,0,0,2.983-1.845,11.013,11.013,0,0,0,2.013-2,.546.546,0,1,1,.915.6,12.123,12.123,0,0,1-2.24,2.254,12.921,12.921,0,0,1-3.3,2.023A.545.545,0,0,1,178.016,107.555Z" transform="translate(-146.794 -84.784)" fill="#383837"/>
        <path id="패스_127" data-name="패스 127" d="M148.3,175.812a11.972,11.972,0,0,1-3.565-.619,23.2,23.2,0,0,1-2.684-1.062.546.546,0,1,1,.457-.992,21.8,21.8,0,0,0,2.557,1.012,10.9,10.9,0,0,0,3.236.568.546.546,0,0,1,0,1.092Z" transform="translate(-117.272 -143.176)" fill="#383837"/>
      </g>
    </g>
    <g id="그룹_3049" data-name="그룹 3049" transform="translate(1267.47 37.042) rotate(-11)">
      <path id="패스_1473" data-name="패스 1473" d="M.932,0h11.9a.932.932,0,0,1,.932.932v7.2a.932.932,0,0,1-.932.932H.932A.932.932,0,0,1,0,8.129V.932A.932.932,0,0,1,.932,0" transform="translate(0 0)" fill="#d8d8d8"/>
      <path id="선_312" data-name="선 312" d="M6.724,4.792a.272.272,0,0,1-.15-.045L.123.5a.273.273,0,1,1,.3-.456L6.875,4.291a.273.273,0,0,1-.15.5Z" transform="translate(0.159 0.012)" fill="#fff"/>
      <path id="선_313" data-name="선 313" d="M.273,4.792a.273.273,0,0,1-.15-.5L6.574.045a.273.273,0,1,1,.3.456L.423,4.747A.272.272,0,0,1,.273,4.792Z" transform="translate(6.611 0.012)" fill="#fff"/>
    </g>
    <g id="그룹_3258" data-name="그룹 3258" transform="translate(1203.248 118.218)">
      <rect id="사각형_2240" data-name="사각형 2240" width="11.608" height="11.608" fill="#ffedd5"/>
      <g id="그룹_3449" data-name="그룹 3449" transform="translate(1.837 4.195)">
        <path id="패스_2173" data-name="패스 2173" d="M0,2.362v.3l2.012.965V3.3L.323,2.512,2.012,1.72V1.392Z" transform="translate(0 -0.905)" fill="#565f6d"/>
        <path id="패스_2174" data-name="패스 2174" d="M10.556,0,9.477,3.218h.314L10.87,0Z" transform="translate(-6.158 0)" fill="#565f6d"/>
        <path id="패스_2175" data-name="패스 2175" d="M17.186,1.72l1.684.792L17.186,3.3v.323L19.2,2.657v-.3l-2.012-.969Z" transform="translate(-11.168 -0.905)" fill="#565f6d"/>
      </g>
    </g>
  </g>
</svg>
