<svg width="55" height="55" viewBox="0 0 55 55" xmlns="http://www.w3.org/2000/svg">
    <defs>
        <filter x="-53.3%" y="-53.3%" width="206.7%" height="206.7%" filterUnits="objectBoundingBox" id="xlx2h5fysa">
            <feOffset dy="2" in="SourceAlpha" result="shadowOffsetOuter1"/>
            <feMorphology radius="1" in="SourceAlpha" result="shadowInner"/>
            <feOffset dy="2" in="shadowInner" result="shadowInner"/>
            <feComposite in="shadowOffsetOuter1" in2="shadowInner" operator="out" result="shadowOffsetOuter1"/>
            <feGaussianBlur stdDeviation="3" in="shadowOffsetOuter1" result="shadowBlurOuter1"/>
            <feColorMatrix values="0 0 0 0 0.099659503 0 0 0 0 0.188335738 0 0 0 0 0.330644248 0 0 0 0.16 0" in="shadowBlurOuter1" result="shadowMatrixOuter1"/>
            <feMerge>
                <feMergeNode in="shadowMatrixOuter1"/>
                <feMergeNode in="SourceGraphic"/>
            </feMerge>
        </filter>
    </defs>
    <g filter="url(#xlx2h5fysa)" transform="translate(12.3 12.3)" fill="none" fill-rule="evenodd">
        <path d="M.833.833h28.333v28.333H.833z"/>
        <path d="M29.167 25.25a1 1 0 0 1-1 1H5.417V13.917a1 1 0 0 1 1-1h11.916V8.91a1 1 0 0 1 1.753-.658l3.247 3.71V8.911a1 1 0 0 1 .255-.666l.087-.086a1 1 0 0 1 1.41.094l4.082 4.664V25.25z" fill="#00CFCA"/>
        <path d="M1.833 17.083H21.5a1 1 0 0 1 1 1v8.167H1.833a1 1 0 0 1-1-1v-7.167a1 1 0 0 1 1-1z" fill="#CCF5F4"/>
        <path d="M10.167 3.75h.083a1 1 0 0 1 1 1v8.167H9.167V4.75a1 1 0 0 1 1-1zM13.083 3.75h.084a1 1 0 0 1 1 1v8.167h-2.084V4.75a1 1 0 0 1 1-1z" fill="#CCD2DD"/>
        <g fill="#00CFCA">
            <path d="M2.917 19.583h1v2.083h-1zM7.084 19.583h1v2.083h-1zM11.25 19.583h1v2.083h-1zM19.584 19.583h1v2.083h-1zM15.417 19.583h1v2.083h-1z"/>
        </g>
    </g>
</svg>
