<svg width="104" height="104" viewBox="0 0 104 104" xmlns="http://www.w3.org/2000/svg">
    <defs>
        <filter x="-20.8%" y="-20.8%" width="141.2%" height="141.1%" filterUnits="objectBoundingBox" id="zshp4q76ea">
            <feOffset dy="2" in="SourceAlpha" result="shadowOffsetOuter1"/>
            <feMorphology radius="1" in="SourceAlpha" result="shadowInner"/>
            <feOffset dy="2" in="shadowInner" result="shadowInner"/>
            <feComposite in="shadowOffsetOuter1" in2="shadowInner" operator="out" result="shadowOffsetOuter1"/>
            <feGaussianBlur stdDeviation="3" in="shadowOffsetOuter1" result="shadowBlurOuter1"/>
            <feColorMatrix values="0 0 0 0 0.099659503 0 0 0 0 0.188335738 0 0 0 0 0.330644248 0 0 0 0.16 0" in="shadowBlurOuter1" result="shadowMatrixOuter1"/>
            <feMerge>
                <feMergeNode in="shadowMatrixOuter1"/>
                <feMergeNode in="SourceGraphic"/>
            </feMerge>
        </filter>
    </defs>
    <g filter="url(#zshp4q76ea)" transform="translate(12.716 13.272)" fill="none" fill-rule="evenodd">
        <path d="M8.284 8.728h68v68h-68z"/>
        <path d="M33.941 18.228 72.203 56.49a1 1 0 0 1 0 1.414L54.761 75.346a1 1 0 0 1-1.414 0L15.085 37.084 33.94 18.228z" fill="#00CFCA"/>
        <g transform="rotate(45 -22.778 108.102)">
            <circle fill="#CCF5F4" cx="6.222" cy="6.222" r="6.222"/>
            <g stroke="#00CFCA">
                <path d="M6.223 2.667v7.11M2.667 6.222h7.11M3.708 3.708l5.029 5.028M8.736 3.708 3.708 8.736"/>
            </g>
        </g>
        <g fill="#FFF" fill-rule="nonzero">
            <path d="m24.124 34.495 2.613 2.613c1.614 1.614 3.524 2.158 5 .683.99-.99.96-2.128.356-3.108l.05-.05c.84.406 1.91.09 2.583-.584 1.366-1.366.663-2.96-.841-4.465l-2.426-2.425-7.335 7.336zm5.81-2.881 1.862-1.861.871.87c.881.882 1.06 1.575.416 2.218-.584.584-1.366.555-2.297-.376l-.851-.851zm-3.217 3.217 2.139-2.138 1.02 1.02c1.01 1.01 1.237 1.85.524 2.564-.762.762-1.663.574-2.663-.426l-1.02-1.02zM30.865 41.236l1.465 1.465 2.772-2.772 1.02 1.02-1.267 4.277 1.633 1.633 1.287-4.712c1.168.515 2.406.386 3.505-.713 1.682-1.683 1.01-3.445-.525-4.98L38.2 33.902l-7.336 7.335zm5.396-2.465 2.237-2.237.95.95c.94.94 1.198 1.733.406 2.525-.782.782-1.703.653-2.643-.287l-.95-.95zM43.032 45.76a74.62 74.62 0 0 0 3.02-1.772l.049.05c-.584 1-1.228 2.039-1.762 3.029l-.585 1.02-1.742-1.743 1.02-.584zm-6.356 1.287 1.485 1.485 2.396-1.366 2.376 2.376-1.366 2.396 1.534 1.534 4.98-9.692-1.723-1.722-9.682 4.99zM43.962 54.333l1.386 1.386 2.94-2.94c.842-.841 1.654-1.871 2.376-2.732l.05.05-.832 2.316-1.801 6.038 1.484 1.485 7.336-7.335-1.386-1.386-2.93 2.93c-.832.832-1.683 1.92-2.376 2.752l-.05-.05.852-2.316 1.782-6.038-1.495-1.495-7.336 7.335zM51.377 61.748l2.089 2.089c2.158 2.158 4.771 2.316 7.236-.149 2.475-2.475 2.257-5.029.02-7.266l-2.01-2.01-7.335 7.336zm2.643.287 4.98-4.98.455.456c1.366 1.366 1.544 2.89-.247 4.682-1.782 1.782-3.366 1.664-4.732.297l-.456-.455z"/>
        </g>
        <path d="m47.769 69.51 5.578 5.58a1 1 0 0 0 1.414 0l5.579-5.58H47.769z" fill="#CCF5F4"/>
        <path d="M33.941 18.228 15.085 37.084l-.594-18.419a1 1 0 0 1 .967-1.032h.065l18.418.595zm-13.828 2.514a1.778 1.778 0 1 0-2.514 2.514 1.778 1.778 0 0 0 2.514-2.514z" fill="#CCD2DD"/>
        <path d="M18.228 21.37c.342-3.01-.291-5.319-1.901-6.929-2.415-2.414-5.512-3.258-6.899-1.87-1.387 1.387-1.038 3.592 1.113 5.743 1.435 1.435 2.776 2.158 4.023 2.167" stroke="#9299A5"/>
    </g>
</svg>
