<svg width="78" height="78" viewBox="0 0 78 78" xmlns="http://www.w3.org/2000/svg">
    <defs>
        <filter x="-29.6%" y="-29.6%" width="159.3%" height="159.3%" filterUnits="objectBoundingBox" id="0uskwyal7a">
            <feOffset dy="2" in="SourceAlpha" result="shadowOffsetOuter1"/>
            <feMorphology radius="1" in="SourceAlpha" result="shadowInner"/>
            <feOffset dy="2" in="shadowInner" result="shadowInner"/>
            <feComposite in="shadowOffsetOuter1" in2="shadowInner" operator="out" result="shadowOffsetOuter1"/>
            <feGaussianBlur stdDeviation="3" in="shadowOffsetOuter1" result="shadowBlurOuter1"/>
            <feColorMatrix values="0 0 0 0 0.099659503 0 0 0 0 0.188335738 0 0 0 0 0.330644248 0 0 0 0.16 0" in="shadowBlurOuter1" result="shadowMatrixOuter1"/>
            <feMerge>
                <feMergeNode in="shadowMatrixOuter1"/>
                <feMergeNode in="SourceGraphic"/>
            </feMerge>
        </filter>
    </defs>
    <g filter="url(#0uskwyal7a)" transform="translate(12 12)" fill="none" fill-rule="evenodd">
        <path d="M1.5 1.5h51v51h-51z"/>
        <path d="M52.5 46.25a1 1 0 0 1-1 1H9.75v-23a1 1 0 0 1 1-1H33v-9.339a1 1 0 0 1 1.753-.658L42 21.536v-7.625a1 1 0 0 1 .254-.666l.087-.086a1 1 0 0 1 1.412.094L52.5 23.25v23z" fill="#00CFCA"/>
        <path d="M2.5 30.75h37a1 1 0 0 1 1 1v15.5h-38a1 1 0 0 1-1-1v-14.5a1 1 0 0 1 1-1z" fill="#CCF5F4"/>
        <path d="M17.5 6.75h1.75a1 1 0 0 1 1 1v15.5H16.5V7.75a1 1 0 0 1 1-1zM22.75 6.75h1.75a1 1 0 0 1 1 1v15.5h-3.75V7.75a1 1 0 0 1 1-1z" fill="#CCD2DD"/>
        <g fill="#00CFCA">
            <path d="M5.25 35.25h1.5V39h-1.5zM12.75 35.25h1.5V39h-1.5zM20.25 35.25h1.5V39h-1.5zM35.25 35.25h1.5V39h-1.5zM27.75 35.25h1.5V39h-1.5z"/>
        </g>
    </g>
</svg>
