<svg width="36" height="36" viewBox="0 0 36 36" xmlns="http://www.w3.org/2000/svg" xmlns:xlink="http://www.w3.org/1999/xlink">
    <defs>
        <path id="9rqssop8ta" d="M0 0h16v13.17H0z"/>
    </defs>
    <g fill="none" fill-rule="evenodd">
        <circle fill="#3B3D43" opacity=".8" cx="18" cy="18" r="18"/>
        <g opacity=".5">
            <path d="M10 10h16v16H10z"/>
            <g transform="translate(10 11.5)">
                <mask id="ig977hmgkb" fill="#fff">
                    <use xlink:href="#9rqssop8ta"/>
                </mask>
                <path d="M15.935 1.579c-.509.23-1.07.369-1.619.461.26-.044.643-.515.796-.705.234-.291.428-.622.537-.98.014-.028.024-.063-.004-.084-.035-.014-.057-.006-.085.007a8.256 8.256 0 0 1-1.919.734.128.128 0 0 1-.132-.035 1.55 1.55 0 0 0-.168-.171 3.398 3.398 0 0 0-.93-.57 3.234 3.234 0 0 0-1.424-.23A3.477 3.477 0 0 0 8.544 1.28c-.308.38-.536.83-.652 1.305-.112.46-.103.914-.035 1.378.01.077.004.087-.066.077C5.156 3.647 2.971 2.705 1.2.684c-.077-.088-.12-.088-.182.006-.776 1.163-.4 3.032.57 3.95.129.123.262.245.405.357-.052.01-.697-.06-1.272-.357-.077-.048-.115-.02-.123.067-.006.125.004.241.021.378.149 1.178.966 2.269 2.084 2.694.133.056.28.105.423.13-.255.055-.518.095-1.248.038-.091-.017-.126.028-.091.115.55 1.497 1.734 1.942 2.621 2.195.119.021.238.021.357.049-.007.01-.014.01-.021.021-.294.449-1.315.783-1.79.949a6.42 6.42 0 0 1-2.719.348c-.146-.021-.177-.02-.216 0-.04.025-.006.06.041.098.185.122.375.23.567.336.58.307 1.185.552 1.817.727 3.266.901 6.945.239 9.398-2.198 1.926-1.913 2.6-4.552 2.6-7.194 0-.104.123-.16.195-.216.502-.376.906-.827 1.28-1.33A.404.404 0 0 0 16 1.592V1.58c0-.043 0-.03-.065 0" fill="#FFF" mask="url(#ig977hmgkb)"/>
            </g>
        </g>
    </g>
</svg>
