<svg width="85" height="84" viewBox="0 0 85 84" xmlns="http://www.w3.org/2000/svg">
    <defs>
        <filter x="-27.8%" y="-27.7%" width="154.9%" height="154.8%" filterUnits="objectBoundingBox" id="01ki12xm6a">
            <feOffset dy="2" in="SourceAlpha" result="shadowOffsetOuter1"/>
            <feMorphology radius="1" in="SourceAlpha" result="shadowInner"/>
            <feOffset dy="2" in="shadowInner" result="shadowInner"/>
            <feComposite in="shadowOffsetOuter1" in2="shadowInner" operator="out" result="shadowOffsetOuter1"/>
            <feGaussianBlur stdDeviation="3" in="shadowOffsetOuter1" result="shadowBlurOuter1"/>
            <feColorMatrix values="0 0 0 0 0.099659503 0 0 0 0 0.188335738 0 0 0 0 0.330644248 0 0 0 0.16 0" in="shadowBlurOuter1" result="shadowMatrixOuter1"/>
            <feMerge>
                <feMergeNode in="shadowMatrixOuter1"/>
                <feMergeNode in="SourceGraphic"/>
            </feMerge>
        </filter>
    </defs>
    <g filter="url(#01ki12xm6a)" transform="translate(13.287 12.954)" fill="none" fill-rule="evenodd">
        <path d="M6.213 6.546h51v51h-51z"/>
        <path d="m25.456 13.67 28.52 28.52a1 1 0 0 1 0 1.415L41.248 56.333a1 1 0 0 1-1.414 0l-28.52-28.52L25.456 13.67z" fill="#00CFCA"/>
        <g transform="rotate(45 -17.084 81.076)">
            <circle fill="#CCF5F4" cx="4.667" cy="4.667" r="4.667"/>
            <g stroke="#00CFCA">
                <path d="M4.667 2v5.333M2 4.666h5.333M2.781 2.78l3.771 3.772M6.552 2.78 2.781 6.553"/>
            </g>
        </g>
        <g fill="#FFF" fill-rule="nonzero">
            <path d="m18.093 25.871 1.96 1.96c1.21 1.21 2.643 1.619 3.75.512.742-.742.72-1.596.267-2.331l.037-.037c.63.304 1.433.067 1.938-.438 1.024-1.025.497-2.22-.632-3.349l-1.819-1.819-5.501 5.502zm4.358-2.16 1.396-1.396.653.653c.661.66.795 1.18.312 1.663-.438.438-1.025.416-1.722-.282l-.639-.639zm-2.413 2.412 1.604-1.603.765.764c.757.758.928 1.389.393 1.923-.572.572-1.247.431-1.997-.319l-.765-.765zM23.149 30.927l1.099 1.099 2.079-2.079.764.765-.95 3.207 1.225 1.225.965-3.534c.876.386 1.805.29 2.629-.534 1.262-1.263.757-2.584-.394-3.735l-1.915-1.916-5.502 5.502zm4.046-1.849 1.678-1.678.713.713c.705.706.898 1.3.305 1.893-.587.587-1.278.49-1.983-.215l-.713-.713zM32.274 34.32a55.965 55.965 0 0 0 2.264-1.329l.037.037c-.438.75-.92 1.53-1.321 2.272l-.438.765-1.307-1.307.765-.438zm-4.767.965 1.114 1.114 1.797-1.025 1.782 1.782-1.025 1.797 1.15 1.151 3.735-7.269-1.291-1.292-7.262 3.742zM32.972 40.75l1.04 1.04 2.204-2.206c.631-.63 1.24-1.403 1.782-2.049l.037.037-.623 1.738-1.352 4.529 1.114 1.113 5.502-5.501-1.04-1.04-2.197 2.198c-.624.624-1.263 1.44-1.782 2.064l-.037-.037.638-1.738 1.337-4.529-1.122-1.12-5.501 5.5zM38.533 46.311l1.566 1.567c1.619 1.618 3.579 1.737 5.428-.112 1.856-1.856 1.693-3.772.015-5.45l-1.508-1.507-5.501 5.502zm1.982.215 3.735-3.734.341.341c1.025 1.025 1.159 2.168-.185 3.512-1.337 1.336-2.525 1.247-3.55.223l-.34-.342z"/>
        </g>
        <path d="m35.827 52.133 4.007 4.007a1 1 0 0 0 1.414 0l4.007-4.007h-9.428z" fill="#CCF5F4"/>
        <path d="M25.456 13.67 11.314 27.814l-.437-13.548a1 1 0 0 1 1.031-1.031l13.548.437zm-10.371 1.886a1.333 1.333 0 1 0-1.886 1.886 1.333 1.333 0 0 0 1.886-1.886z" fill="#CCD2DD"/>
        <path d="M13.67 16.028c.258-2.257-.217-3.99-1.425-5.197-1.81-1.811-4.133-2.443-5.174-1.403-1.04 1.04-.779 2.694.835 4.308 1.076 1.076 2.082 1.618 3.017 1.625" stroke="#9299A5"/>
    </g>
</svg>
