<svg width="40" height="40" viewBox="0 0 40 40" xmlns="http://www.w3.org/2000/svg">
    <g transform="translate(1.481 1.481)" fill="none" fill-rule="evenodd">
        <path d="M0 0h37.037v37.037H0z"/>
        <rect fill="#CCD2DD" x="13.333" y="9.63" width="22.222" height="27.407" rx="2"/>
        <g fill="#9299A5">
            <path d="M18.519 12.593h1.48v3.704h-1.48zM22.963 12.593h1.48v3.704h-1.48zM27.408 12.593h1.48v3.704h-1.48zM31.852 12.593h1.48v3.704h-1.48z"/>
            <g>
                <path d="M18.519 19.26h1.48v3.703h-1.48zM22.963 19.26h1.48v3.703h-1.48zM27.408 19.26h1.48v3.703h-1.48zM31.852 19.26h1.48v3.703h-1.48z"/>
            </g>
        </g>
        <rect fill="#00CFCA" x="1.481" width="22.222" height="37.037" rx="2"/>
        <path d="M12.593 26.667a3.704 3.704 0 0 1 3.703 3.703v6.667H8.89V30.37a3.704 3.704 0 0 1 3.704-3.703z" fill="#CCF5F4"/>
        <g opacity=".5" fill="#FFF">
            <path d="M5.185 3.704h1.481v3.704h-1.48zM9.63 3.704h1.48v3.704H9.63zM14.074 3.704h1.481v3.704h-1.48zM18.518 3.704H20v3.704h-1.48z"/>
            <g>
                <path d="M5.185 10.37h1.481v3.704h-1.48zM9.63 10.37h1.48v3.704H9.63zM14.074 10.37h1.481v3.704h-1.48zM18.518 10.37H20v3.704h-1.48z"/>
            </g>
            <g>
                <path d="M5.185 17.037h1.481v3.704h-1.48zM9.63 17.037h1.48v3.704H9.63zM14.074 17.037h1.481v3.704h-1.48zM18.518 17.037H20v3.704h-1.48z"/>
            </g>
        </g>
    </g>
</svg>
