<svg width="36" height="36" viewBox="0 0 36 36" xmlns="http://www.w3.org/2000/svg" xmlns:xlink="http://www.w3.org/1999/xlink">
    <defs>
        <path id="vzwskh2cya" d="M0 0h16v16H0z"/>
    </defs>
    <g fill="none" fill-rule="evenodd">
        <circle fill="#3B3D43" opacity=".8" cx="18" cy="18" r="18"/>
        <g opacity=".5">
            <path d="M10 10h16v16H10z"/>
            <path d="M22.236 12.857a.938.938 0 1 0 0 1.876.938.938 0 0 0 0-1.876M18.066 20.524A2.526 2.526 0 0 1 15.542 18a2.526 2.526 0 0 1 2.524-2.524A2.526 2.526 0 0 1 20.59 18a2.526 2.526 0 0 1-2.524 2.524m0-6.464a3.945 3.945 0 0 0-3.94 3.94 3.945 3.945 0 0 0 3.94 3.94 3.945 3.945 0 0 0 3.94-3.94 3.945 3.945 0 0 0-3.94-3.94" fill="#FFF"/>
            <g transform="translate(10 10)">
                <mask id="gqy28r1utb" fill="#fff">
                    <use xlink:href="#vzwskh2cya"/>
                </mask>
                <path d="M4.806 1.505c-1.82 0-3.3 1.48-3.3 3.3v6.389c0 1.82 1.48 3.3 3.3 3.3h6.388c1.82 0 3.3-1.48 3.3-3.3V4.806c0-1.82-1.48-3.3-3.3-3.3H4.806zM11.194 16H4.806A4.811 4.811 0 0 1 0 11.194V4.806A4.811 4.811 0 0 1 4.806 0h6.388A4.811 4.811 0 0 1 16 4.806v6.388A4.811 4.811 0 0 1 11.194 16z" fill="#FFF" mask="url(#gqy28r1utb)"/>
            </g>
        </g>
    </g>
</svg>
