<svg width="60" height="60" viewBox="0 0 60 60" xmlns="http://www.w3.org/2000/svg">
    <path d="M46.03 32.206H32.793v-4.413h9.926c3.31 0 3.637 0 3.637-1.103s-.328-1.103-3.637-1.103h-9.926v-4.41H46.03s4.412 0 4.412 5.513c0 5.516-4.412 5.516-4.412 5.516zm-13.238 6.618h6.619v-4.412h-6.619v4.412zm-19.85-13.237h17.646v-4.412H12.941v4.412zm0 6.619h13.234v-4.413H12.941v4.413zm-.003 6.618h6.619v-4.412h-6.619v4.412zM30 0C13.431 0 0 13.431 0 30c0 16.568 13.43 30 30 30 16.568 0 30-13.432 30-30C60 13.43 46.568 0 30 0z" fill="#FEFEFE" fill-rule="evenodd"/>
</svg>
