<svg width="128" height="28" viewBox="0 0 128 28" xmlns="http://www.w3.org/2000/svg" xmlns:xlink="http://www.w3.org/1999/xlink">
    <defs>
        <path id="wk8hhecb4a" d="M0 0h27.927v28H0z"/>
    </defs>
    <g fill="none" fill-rule="evenodd">
        <g fill="#FFF">
            <path d="M39.062 13.985v6.16h-3.056v-6.16H34.91v-2.57h1.097v-1.31c0-.726.068-1.304.202-1.736.113-.362.292-.7.54-1.013.248-.31.537-.58.87-.808.332-.225.69-.402 1.072-.526.383-.126.76-.189 1.131-.189.259 0 .499.03.718.086.22.056.442.136.667.239v2.688a3.336 3.336 0 0 0-.566-.23 1.945 1.945 0 0 0-.548-.076c-.124 0-.251.019-.38.06a.831.831 0 0 0-.364.246c-.112.126-.187.304-.226.536-.04.233-.06.547-.06.944v1.089h2.144v2.57h-2.144zM44.582 15.738c0 .294.054.564.16.807.108.246.249.458.423.64.175.18.383.322.624.424.242.102.5.154.769.154a1.96 1.96 0 0 0 1.394-.579 2.18 2.18 0 0 0 .422-.639c.105-.243.159-.507.159-.791 0-.272-.054-.53-.16-.773a2.22 2.22 0 0 0-.421-.64 1.879 1.879 0 0 0-.626-.424 1.959 1.959 0 0 0-.768-.153c-.27 0-.527.051-.769.153-.241.102-.45.244-.624.425a2.226 2.226 0 0 0-.422.63c-.107.237-.16.493-.16.766m-3.225-.035c0-.646.129-1.25.389-1.811a4.428 4.428 0 0 1 1.08-1.464 5.119 5.119 0 0 1 1.646-.978 5.87 5.87 0 0 1 2.085-.357c.743 0 1.432.116 2.068.348a5.121 5.121 0 0 1 1.654.97c.469.414.831.908 1.09 1.48a4.56 4.56 0 0 1 .389 1.897c0 .693-.134 1.326-.397 1.897a4.53 4.53 0 0 1-1.09 1.481 4.879 4.879 0 0 1-1.662.962 6.339 6.339 0 0 1-2.103.34 6.06 6.06 0 0 1-2.06-.34 4.748 4.748 0 0 1-1.63-.97 4.508 4.508 0 0 1-1.07-1.506c-.26-.585-.389-1.234-.389-1.949M55.742 15.738c0 .294.054.564.16.807.108.246.249.458.423.64.175.18.383.322.624.424.242.102.5.154.769.154a1.96 1.96 0 0 0 1.394-.579 2.18 2.18 0 0 0 .422-.639c.105-.243.159-.507.159-.791 0-.272-.054-.53-.16-.773a2.22 2.22 0 0 0-.421-.64 1.879 1.879 0 0 0-.626-.424 1.959 1.959 0 0 0-.768-.153c-.27 0-.527.051-.769.153-.241.102-.45.244-.624.425a2.226 2.226 0 0 0-.422.63c-.107.237-.16.493-.16.766m-3.225-.035c0-.646.129-1.25.389-1.811a4.428 4.428 0 0 1 1.08-1.464 5.119 5.119 0 0 1 1.646-.978 5.87 5.87 0 0 1 2.085-.357c.743 0 1.432.116 2.068.348a5.121 5.121 0 0 1 1.654.97c.469.414.831.908 1.09 1.48a4.56 4.56 0 0 1 .389 1.897c0 .693-.133 1.326-.397 1.897a4.53 4.53 0 0 1-1.09 1.481 4.879 4.879 0 0 1-1.662.962 6.339 6.339 0 0 1-2.103.34 6.06 6.06 0 0 1-2.06-.34 4.748 4.748 0 0 1-1.63-.97 4.508 4.508 0 0 1-1.07-1.506c-.26-.585-.389-1.234-.389-1.949M66.852 15.755a2.046 2.046 0 0 0 .565 1.43c.174.18.382.323.625.425.242.101.504.152.785.152.27 0 .525-.05.769-.152.241-.102.45-.244.624-.425.174-.183.315-.392.422-.63a1.932 1.932 0 0 0 0-1.54 2.162 2.162 0 0 0-.422-.638 1.84 1.84 0 0 0-.624-.427 1.97 1.97 0 0 0-.769-.152c-.27 0-.526.05-.768.152a1.846 1.846 0 0 0-.626.427 2.274 2.274 0 0 0-.42.62c-.108.233-.161.485-.161.758zm3.85-9.733h3.072v14.123h-3.072v-.97c-.655.828-1.538 1.243-2.652 1.243a4.19 4.19 0 0 1-3.123-1.345 4.486 4.486 0 0 1-.92-1.48 5.04 5.04 0 0 1-.33-1.838c0-.624.104-1.217.314-1.78a4.474 4.474 0 0 1 .885-1.471c.383-.419.84-.751 1.376-.995a4.206 4.206 0 0 1 1.764-.366c1.08 0 1.976.381 2.686 1.14V6.021zM82.097 15.806c0-.273-.048-.53-.144-.775a1.832 1.832 0 0 0-.413-.638 2.066 2.066 0 0 0-.634-.433 1.907 1.907 0 0 0-.785-.162 1.898 1.898 0 0 0-1.375.577 2.189 2.189 0 0 0-.422.64c-.108.243-.161.502-.161.774s.052.527.151.765c.103.239.244.445.423.622.18.175.391.317.633.425.242.107.499.161.768.161a1.885 1.885 0 0 0 1.377-.579c.173-.18.314-.39.421-.63.107-.237.16-.486.16-.747zm-3.85 8.694h-3.056V11.415h3.056v.97c.653-.828 1.542-1.242 2.669-1.242.618 0 1.195.122 1.73.366.534.244.998.576 1.393.995.393.42.7.914.92 1.481.22.567.33 1.174.33 1.82 0 .647-.11 1.248-.33 1.805a4.64 4.64 0 0 1-.913 1.463 4.154 4.154 0 0 1-3.099 1.345c-1.078 0-1.98-.376-2.7-1.124V24.5zM86.369 20.145h3.055V6.02H86.37zM93.695 15.755a2.046 2.046 0 0 0 .566 1.43c.173.18.382.323.624.425.242.101.505.152.785.152.271 0 .527-.05.768-.152.242-.102.45-.244.626-.425.175-.183.314-.392.422-.63a1.932 1.932 0 0 0 0-1.54 2.192 2.192 0 0 0-.422-.638 1.86 1.86 0 0 0-.626-.427 1.959 1.959 0 0 0-.768-.152c-.28 0-.543.05-.785.152a1.825 1.825 0 0 0-.624.427 2.126 2.126 0 0 0-.415.62 1.877 1.877 0 0 0-.151.758zm3.85-4.34h3.072v8.73h-3.072v-.97c-.654.828-1.537 1.243-2.65 1.243a4.26 4.26 0 0 1-1.74-.35 4.214 4.214 0 0 1-1.385-.977c-.393-.42-.7-.914-.92-1.481a5.081 5.081 0 0 1-.329-1.855c0-.624.107-1.217.321-1.78a4.598 4.598 0 0 1 .894-1.471 4.146 4.146 0 0 1 3.125-1.361c1.08 0 1.974.381 2.684 1.14v-.868zM102.035 11.415h3.056v1.106c.416-.51.838-.853 1.267-1.03.426-.174.928-.263 1.5-.263.61 0 1.13.1 1.563.298.433.2.802.479 1.106.842.248.295.416.624.507.988.09.363.134.776.134 1.241v5.547h-3.055v-4.407c0-.43-.031-.78-.094-1.045a1.296 1.296 0 0 0-.329-.64 1.153 1.153 0 0 0-.454-.288 1.686 1.686 0 0 0-.54-.085c-.519 0-.915.155-1.19.468-.278.311-.415.757-.415 1.336v4.661h-3.056v-8.729zM118.918 14.512a1.866 1.866 0 0 0-.624-1.038c-.316-.26-.7-.39-1.15-.39-.472 0-.858.124-1.155.374-.298.25-.488.6-.566 1.054h3.495zm-3.58 1.786c0 1.329.62 1.991 1.857 1.991.666 0 1.166-.272 1.504-.816h2.953c-.596 1.997-2.087 2.995-4.474 2.995-.731 0-1.4-.111-2.009-.332a4.476 4.476 0 0 1-1.56-.944 4.203 4.203 0 0 1-1.005-1.463c-.237-.567-.355-1.203-.355-1.906 0-.726.112-1.381.337-1.966.227-.583.546-1.08.963-1.489.416-.408.92-.722 1.51-.945.592-.22 1.258-.33 2.001-.33.732 0 1.391.11 1.976.33.586.223 1.08.543 1.486.962.405.42.714.933.928 1.54.215.607.322 1.29.322 2.05v.323h-6.435zM126.262 13.985v6.16h-3.056v-6.16h-1.013v-2.57h1.013v-2.62h3.056v2.62H128v2.57z"/>
        </g>
        <g>
            <mask id="usjhgno84b" fill="#fff">
                <use xlink:href="#wk8hhecb4a"/>
            </mask>
            <path d="M21.417 15.03H15.26v-2.06h4.618c1.54 0 1.693 0 1.693-.514 0-.515-.153-.515-1.693-.515H15.26V9.882h6.158s2.054 0 2.054 2.574-2.054 2.574-2.054 2.574zm-6.158 3.088h3.08v-2.06h-3.08v2.06zM6.021 11.94h8.21V9.882h-8.21v2.06zm.001 3.089h6.158v-2.06H6.022v2.06zm0 3.088h3.08v-2.06h-3.08v2.06zM13.96 0C6.25 0 0 6.269 0 14c0 7.733 6.251 14 13.96 14 7.71 0 13.959-6.267 13.959-14 0-7.731-6.25-14-13.959-14z" fill="#FFF" mask="url(#usjhgno84b)"/>
        </g>
    </g>
</svg>
