<svg id="logo_b1" xmlns="http://www.w3.org/2000/svg" width="128" height="28" viewBox="0 0 128 28">
  <g id="그룹_21736" data-name="그룹 21736">
    <path id="패스_15218" data-name="패스 15218" d="M39.062,13.985v6.16H36.006v-6.16h-1.1v-2.57h1.1v-1.31a6.04,6.04,0,0,1,.2-1.736,3.116,3.116,0,0,1,.54-1.013,4.007,4.007,0,0,1,.87-.808,4.238,4.238,0,0,1,1.072-.526,3.605,3.605,0,0,1,1.131-.189,2.9,2.9,0,0,1,.718.086,3.938,3.938,0,0,1,.667.239V8.846a3.336,3.336,0,0,0-.566-.23,1.945,1.945,0,0,0-.548-.076,1.249,1.249,0,0,0-.38.06.831.831,0,0,0-.364.246,1.052,1.052,0,0,0-.226.536,5.84,5.84,0,0,0-.06.944v1.089h2.144v2.57H39.063Zm5.52,1.753a2,2,0,0,0,.16.807,2.188,2.188,0,0,0,.423.64,1.886,1.886,0,0,0,.624.424,1.977,1.977,0,0,0,2.163-.425,2.18,2.18,0,0,0,.422-.639,1.975,1.975,0,0,0,.159-.791,1.914,1.914,0,0,0-.16-.773,2.22,2.22,0,0,0-.421-.64,1.879,1.879,0,0,0-.626-.424,2.007,2.007,0,0,0-1.537,0,1.864,1.864,0,0,0-.624.425,2.226,2.226,0,0,0-.422.63,1.842,1.842,0,0,0-.16.766M41.358,15.7a4.254,4.254,0,0,1,.389-1.811,4.428,4.428,0,0,1,1.08-1.464,5.119,5.119,0,0,1,1.646-.978,5.87,5.87,0,0,1,2.085-.357,5.989,5.989,0,0,1,2.068.348,5.121,5.121,0,0,1,1.654.97,4.335,4.335,0,0,1,1.09,1.48,4.56,4.56,0,0,1,.389,1.9,4.484,4.484,0,0,1-.4,1.9,4.53,4.53,0,0,1-1.09,1.481,4.879,4.879,0,0,1-1.662.962,6.339,6.339,0,0,1-2.1.34,6.06,6.06,0,0,1-2.06-.34,4.748,4.748,0,0,1-1.63-.97,4.508,4.508,0,0,1-1.07-1.506,4.744,4.744,0,0,1-.389-1.949m14.384.035a2,2,0,0,0,.16.807,2.188,2.188,0,0,0,.423.64,1.886,1.886,0,0,0,.624.424,1.977,1.977,0,0,0,2.163-.425,2.18,2.18,0,0,0,.422-.639,1.975,1.975,0,0,0,.159-.791,1.914,1.914,0,0,0-.16-.773,2.22,2.22,0,0,0-.421-.64,1.879,1.879,0,0,0-.626-.424,2.007,2.007,0,0,0-1.537,0,1.864,1.864,0,0,0-.624.425,2.226,2.226,0,0,0-.422.63,1.842,1.842,0,0,0-.16.766M52.518,15.7a4.254,4.254,0,0,1,.389-1.811,4.428,4.428,0,0,1,1.08-1.464,5.119,5.119,0,0,1,1.646-.978,5.87,5.87,0,0,1,2.085-.357,5.989,5.989,0,0,1,2.068.348,5.121,5.121,0,0,1,1.654.97,4.335,4.335,0,0,1,1.09,1.48,4.56,4.56,0,0,1,.389,1.9,4.468,4.468,0,0,1-.4,1.9,4.53,4.53,0,0,1-1.09,1.481,4.879,4.879,0,0,1-1.662.962,6.339,6.339,0,0,1-2.1.34,6.06,6.06,0,0,1-2.06-.34,4.748,4.748,0,0,1-1.63-.97,4.508,4.508,0,0,1-1.07-1.506,4.744,4.744,0,0,1-.389-1.949m14.334.052a2.046,2.046,0,0,0,.565,1.43,1.862,1.862,0,0,0,.625.425,2.019,2.019,0,0,0,.785.152,1.968,1.968,0,0,0,.769-.152,1.864,1.864,0,0,0,.624-.425,2.237,2.237,0,0,0,.422-.63,1.932,1.932,0,0,0,0-1.54,2.162,2.162,0,0,0-.422-.638,1.84,1.84,0,0,0-.624-.427,2.019,2.019,0,0,0-1.537,0,1.846,1.846,0,0,0-.626.427,2.274,2.274,0,0,0-.42.62,1.777,1.777,0,0,0-.161.758ZM70.7,6.022h3.072V20.145H70.7v-.97a3.2,3.2,0,0,1-2.652,1.243,4.19,4.19,0,0,1-3.123-1.345,4.486,4.486,0,0,1-.92-1.48,5.243,5.243,0,0,1-.016-3.618,4.474,4.474,0,0,1,.885-1.471,4.182,4.182,0,0,1,3.14-1.361,3.523,3.523,0,0,1,2.686,1.14V6.021Zm11.4,9.784a2.1,2.1,0,0,0-.144-.775,1.832,1.832,0,0,0-.413-.638,2.066,2.066,0,0,0-.634-.433,1.945,1.945,0,0,0-2.16.415,2.189,2.189,0,0,0-.422.64,1.887,1.887,0,0,0-.161.774,1.973,1.973,0,0,0,.151.765,1.948,1.948,0,0,0,.423.622,2.165,2.165,0,0,0,.633.425,1.922,1.922,0,0,0,2.145-.418,2.186,2.186,0,0,0,.421-.63,1.8,1.8,0,0,0,.16-.747ZM78.247,24.5H75.191V11.415h3.056v.97a3.216,3.216,0,0,1,2.669-1.242,4.12,4.12,0,0,1,1.73.366,4.418,4.418,0,0,1,1.393.995,4.554,4.554,0,0,1,.92,1.481,4.988,4.988,0,0,1,.33,1.82,4.867,4.867,0,0,1-.33,1.805,4.64,4.64,0,0,1-.913,1.463,4.154,4.154,0,0,1-3.1,1.345,3.6,3.6,0,0,1-2.7-1.124Zm8.122-4.355h3.055V6.02H86.37Zm7.326-4.39a2.046,2.046,0,0,0,.566,1.43,1.858,1.858,0,0,0,.624.425,2.023,2.023,0,0,0,.785.152,1.949,1.949,0,0,0,.768-.152,1.882,1.882,0,0,0,.626-.425,2.237,2.237,0,0,0,.422-.63,1.932,1.932,0,0,0,0-1.54,2.192,2.192,0,0,0-.422-.638,1.86,1.86,0,0,0-.626-.427,1.959,1.959,0,0,0-.768-.152,2,2,0,0,0-.785.152,1.825,1.825,0,0,0-.624.427,2.126,2.126,0,0,0-.415.62,1.877,1.877,0,0,0-.151.758Zm3.85-4.34h3.072v8.73H97.545v-.97a3.2,3.2,0,0,1-2.65,1.243,4.26,4.26,0,0,1-1.74-.35,4.214,4.214,0,0,1-1.385-.977,4.554,4.554,0,0,1-.92-1.481,5.081,5.081,0,0,1-.329-1.855,4.966,4.966,0,0,1,.321-1.78,4.6,4.6,0,0,1,.894-1.471,4.146,4.146,0,0,1,3.125-1.361,3.519,3.519,0,0,1,2.684,1.14v-.868Zm4.49,0h3.056v1.106a3.356,3.356,0,0,1,1.267-1.03,3.957,3.957,0,0,1,1.5-.263,3.735,3.735,0,0,1,1.563.3,3.138,3.138,0,0,1,1.106.842,2.433,2.433,0,0,1,.507.988,5.175,5.175,0,0,1,.134,1.241v5.547h-3.055V15.737a4.687,4.687,0,0,0-.094-1.045,1.3,1.3,0,0,0-.329-.64,1.153,1.153,0,0,0-.454-.288,1.686,1.686,0,0,0-.54-.085,1.5,1.5,0,0,0-1.19.468,1.94,1.94,0,0,0-.415,1.336v4.661h-3.056V11.415Zm16.883,3.1a1.866,1.866,0,0,0-.624-1.038,1.752,1.752,0,0,0-1.15-.39,1.734,1.734,0,0,0-1.155.374,1.694,1.694,0,0,0-.566,1.054h3.5Zm-3.58,1.786q0,1.994,1.857,1.991a1.657,1.657,0,0,0,1.5-.816h2.953q-.894,3-4.474,2.995a5.848,5.848,0,0,1-2.009-.332,4.476,4.476,0,0,1-1.56-.944,4.2,4.2,0,0,1-1-1.463,4.9,4.9,0,0,1-.355-1.906,5.439,5.439,0,0,1,.337-1.966,4.172,4.172,0,0,1,.963-1.489,4.291,4.291,0,0,1,1.51-.945,5.709,5.709,0,0,1,2-.33,5.582,5.582,0,0,1,1.976.33,4.029,4.029,0,0,1,1.486.962,4.189,4.189,0,0,1,.928,1.54,6.112,6.112,0,0,1,.322,2.05V16.3h-6.435Zm10.924-2.313v6.16h-3.056v-6.16h-1.013v-2.57h1.013V8.8h3.056v2.62H128v2.57Z" fill="#00cfc9" fill-rule="evenodd"/>
  </g>
  <g id="그룹_21737" data-name="그룹 21737">
    <path id="패스_15219" data-name="패스 15219" d="M21.417,15.03H15.26V12.97h4.618c1.54,0,1.693,0,1.693-.514s-.153-.515-1.693-.515H15.26V9.882h6.158s2.054,0,2.054,2.574-2.054,2.574-2.054,2.574Zm-6.158,3.088h3.08v-2.06h-3.08v2.06ZM6.021,11.94h8.21V9.882H6.021v2.06Zm0,3.089H12.18v-2.06H6.022Zm0,3.088H9.1v-2.06H6.022v2.06ZM13.96,0A14,14,0,1,0,27.919,14,13.981,13.981,0,0,0,13.96,0Z" fill="#00cfc9" fill-rule="evenodd"/>
  </g>
</svg>
